# xmcd
#
# Track frame offsets:
#	150
#	13718
#	28187
#	39275
#	57333
#	69937
#	82235
#	103516
#	119057
#	133610
#	145424
#	157211
#	170072
#	179878
#	195436
#	210836
#	231349
#	248091
#
# Disc length: 3458 seconds
#
# Revision: 1
# Processed by: cddbd v1.5.2PL0 Copyright (c) Steve Scherf et al.
# Submitted via: audiograbber 1.83.01
#
DISCID=0a0d8012
DTITLE=Various Artist - Redneck Country
DYEAR=2006
DGENRE=Country
TTITLE0=Hank WIlliams Jr - All my rowdy Friends are comin' over tonight
TTITLE1=Travis Tritt - Country Club
TTITLE2=George Jones - High Tech Redneck
TTITLE3=The Charlie Daniels Band - The South's Gonna Do It Again
TTITLE4=Dwight Yoakam - Honkey Tonk Man
TTITLE5=Merle Haggard - Okie From Muskogee
TTITLE6=Conway Twitty - Red Neckin' Love Makin' Night
TTITLE7=The Bellamy Brothers - Redneck Girl
TTITLE8=Sawyer Brown - Some Girls Do
TTITLE9=Johnny Paycheck - Take This Job And Shove It
TTITLE10=Joe Stampley and Moe Bandy - Just Good Ol' Boys
TTITLE11=Johnny Russell - Rednecks, White Socks and Blue R
TTITLE12=Waylon Jennings - Theme From The Dukes Of Hazzar
TTITLE13=Alabama - Down Home
TTITLE14=David Allan Coe - Long Haired Redneck
TTITLE15=Jerry Jeff Walker - Up Against The Wall Redneck Mother
TTITLE16=Cledus T Judd -  First Redneck On The Internet
TTITLE17=Vernon Oxford - Redneck! (The Redneck National Anthem)
EXTD=
EXTT0=
EXTT1=
EXTT2=
EXTT3=
EXTT4=
EXTT5=
EXTT6=
EXTT7=
EXTT8=
EXTT9=
EXTT10=
EXTT11=
EXTT12=
EXTT13=
EXTT14=
EXTT15=
EXTT16=
EXTT17=
PLAYORDER=
